<svg width="426" height="59" viewBox="0 0 426 59" fill="none" xmlns="http://www.w3.org/2000/svg">
<path d="M58.6278 57.9629L34.9239 2.25853H23.704L0 57.9629H12.4051L17.4619 45.5578H40.8499L45.9067 57.9629H58.6278ZM36.5041 34.812H21.8077L29.1559 16.876L36.5041 34.812Z" fill="url(#paint0_linear_623_26)"/>
<path d="M108.488 57.9629V0.283203H96.4783V21.1427C95.056 19.4571 93.2914 17.9822 91.1844 16.718C89.1301 15.4538 86.4963 14.8216 83.2831 14.8216C80.7546 14.8216 78.3316 15.2957 76.0138 16.2439C73.6961 17.192 71.6418 18.6143 69.8508 20.5106C68.1125 22.3542 66.6903 24.6456 65.5841 27.3848C64.5306 30.0712 64.0038 33.1791 64.0038 36.7083V36.8663C64.0038 40.3956 64.5306 43.5298 65.5841 46.2689C66.6903 48.9554 68.1389 51.2468 69.9298 53.1431C71.7208 54.9867 73.7751 56.3826 76.0929 57.3308C78.4106 58.2789 80.8073 58.753 83.2831 58.753C86.4436 58.753 89.051 58.1209 91.1054 56.8567C93.2124 55.5398 95.0034 53.8805 96.4783 51.8789V57.9629H108.488ZM96.6363 36.8663C96.6363 38.6046 96.3466 40.2112 95.7672 41.6862C95.2404 43.1084 94.503 44.3463 93.5548 45.3998C92.6593 46.4006 91.5795 47.1907 90.3152 47.7702C89.1037 48.2969 87.7868 48.5603 86.3646 48.5603C84.9423 48.5603 83.5991 48.2969 82.3349 47.7702C81.1234 47.1907 80.0435 46.4006 79.0954 45.3998C78.1472 44.3463 77.3834 43.1084 76.804 41.6862C76.2772 40.2112 76.0138 38.6046 76.0138 36.8663V36.7083C76.0138 34.9174 76.2772 33.3108 76.804 31.8885C77.3834 30.4663 78.1472 29.2547 79.0954 28.2539C80.0435 27.2004 81.1234 26.4103 82.3349 25.8835C83.5991 25.3041 84.9423 25.0144 86.3646 25.0144C87.7868 25.0144 89.1037 25.3041 90.3152 25.8835C91.5795 26.4103 92.6593 27.2004 93.5548 28.2539C94.503 29.2547 95.2404 30.4926 95.7672 31.9675C96.3466 33.3898 96.6363 34.97 96.6363 36.7083V36.8663Z" fill="url(#paint1_linear_623_26)"/>
<path d="M159.673 15.6118H147.189L137.629 43.9775L128.147 15.6118H115.426L132.098 58.2789H143.002L159.673 15.6118Z" fill="url(#paint2_linear_623_26)"/>
<path d="M206.102 37.9725V37.8145C206.102 34.812 205.681 31.9412 204.838 29.2021C204.048 26.4103 202.784 23.9608 201.046 21.8538C199.36 19.6941 197.227 17.9822 194.645 16.718C192.064 15.4538 189.009 14.8216 185.48 14.8216C182.372 14.8216 179.528 15.4011 176.947 16.5599C174.418 17.7188 172.232 19.2991 170.388 21.3007C168.545 23.3024 167.096 25.6465 166.043 28.3329C165.042 31.0194 164.541 33.8638 164.541 36.8663V37.0244C164.541 40.2903 165.094 43.2664 166.201 45.9529C167.307 48.5867 168.834 50.878 170.783 52.827C172.785 54.776 175.129 56.2773 177.816 57.3308C180.555 58.3843 183.505 58.911 186.665 58.911C190.51 58.911 193.855 58.2263 196.7 56.8567C199.544 55.4345 201.967 53.4855 203.969 51.0097L197.095 44.9257C195.409 46.4533 193.776 47.5595 192.196 48.2443C190.616 48.929 188.825 49.2714 186.823 49.2714C184.137 49.2714 181.872 48.5867 180.028 47.2171C178.237 45.7948 177.052 43.7142 176.472 40.975H205.944C205.997 40.3956 206.023 39.8952 206.023 39.4738C206.076 39.0524 206.102 38.552 206.102 37.9725ZM194.408 33.4688H176.314C176.788 30.7297 177.789 28.5436 179.317 26.9107C180.897 25.2777 182.952 24.4613 185.48 24.4613C188.008 24.4613 190.036 25.3041 191.564 26.9897C193.092 28.6226 194.04 30.7823 194.408 33.4688Z" fill="url(#paint3_linear_623_26)"/>
<path d="M240.574 27.3848V14.8216C236.992 14.6636 234.148 15.4537 232.041 17.192C229.934 18.9303 228.275 21.2481 227.063 24.1452V15.6118H215.053V57.9629H227.063V42.3183C227.063 37.2087 228.196 33.4424 230.461 31.0194C232.778 28.5963 235.939 27.3848 239.942 27.3848H240.574Z" fill="url(#paint4_linear_623_26)"/>
<path d="M271.861 56.2246V46.585C270.018 47.5858 268.042 48.0862 265.935 48.0862C263.354 48.0862 262.064 46.7167 262.064 43.9775V25.8835H272.019V15.6118H262.064V4.78696H250.054V15.6118H244.997V25.8835H250.054V45.9529C250.054 48.4286 250.343 50.483 250.923 52.1159C251.555 53.6962 252.398 54.9867 253.451 55.9876C254.557 56.9884 255.848 57.6732 257.323 58.0419C258.85 58.4633 260.536 58.674 262.38 58.674C264.381 58.674 266.146 58.437 267.673 57.9629C269.201 57.5415 270.597 56.9621 271.861 56.2246Z" fill="url(#paint5_linear_623_26)"/>
<path d="M317.297 57.9629V33.3898C317.297 27.6481 315.796 23.1707 312.793 19.9575C309.791 16.7443 304.997 15.1377 298.413 15.1377C294.831 15.1377 291.776 15.4537 289.247 16.0859C286.719 16.718 284.296 17.5344 281.978 18.5353L284.98 27.7008C286.929 26.9634 288.773 26.4103 290.511 26.0415C292.302 25.6201 294.357 25.4094 296.674 25.4094C299.677 25.4094 301.942 26.0679 303.47 27.3848C304.997 28.7016 305.761 30.6243 305.761 33.1527V33.8638C304.233 33.3371 302.653 32.9157 301.02 32.5996C299.44 32.2836 297.57 32.1255 295.41 32.1255C292.882 32.1255 290.564 32.4153 288.457 32.9947C286.403 33.5215 284.612 34.3379 283.084 35.4441C281.609 36.5503 280.45 37.9462 279.608 39.6318C278.765 41.3174 278.343 43.3191 278.343 45.6368V45.7948C278.343 47.9019 278.712 49.7718 279.45 51.4048C280.24 52.9851 281.293 54.3283 282.61 55.4345C283.927 56.5406 285.455 57.3835 287.193 57.9629C288.984 58.4896 290.88 58.753 292.882 58.753C295.832 58.753 298.334 58.2789 300.388 57.3308C302.442 56.3299 304.207 55.0131 305.682 53.3801V57.9629H317.297ZM305.919 43.0294C305.919 45.2418 305.05 47.0327 303.312 48.4023C301.626 49.7718 299.361 50.4566 296.516 50.4566C294.567 50.4566 292.987 50.0089 291.776 49.1134C290.564 48.2179 289.958 46.9537 289.958 45.3208V45.1627C289.958 43.2664 290.696 41.8178 292.171 40.817C293.646 39.8162 295.674 39.3158 298.255 39.3158C299.73 39.3158 301.099 39.4738 302.363 39.7898C303.68 40.0532 304.865 40.4219 305.919 40.896V43.0294Z" fill="url(#paint6_linear_623_26)"/>
<path d="M353.153 27.3848V14.8216C349.571 14.6636 346.726 15.4537 344.619 17.192C342.512 18.9303 340.853 21.2481 339.642 24.1452V15.6118H327.632V57.9629H339.642V42.3183C339.642 37.2087 340.774 33.4424 343.039 31.0194C345.357 28.5963 348.517 27.3848 352.521 27.3848H353.153Z" fill="url(#paint7_linear_623_26)"/>
<path d="M404.43 36.8663V36.7083C404.43 33.6531 403.851 30.8087 402.692 28.1749C401.533 25.4884 399.926 23.1707 397.872 21.2217C395.87 19.22 393.474 17.6661 390.682 16.5599C387.89 15.4011 384.861 14.8216 381.595 14.8216C378.277 14.8216 375.221 15.4011 372.43 16.5599C369.638 17.7188 367.215 19.2991 365.16 21.3007C363.106 23.3024 361.499 25.6465 360.341 28.3329C359.182 30.9667 358.602 33.8112 358.602 36.8663V37.0244C358.602 40.0796 359.182 42.9504 360.341 45.6368C361.499 48.2706 363.08 50.5883 365.081 52.59C367.136 54.539 369.559 56.0929 372.351 57.2518C375.142 58.358 378.171 58.911 381.437 58.911C384.756 58.911 387.811 58.3316 390.603 57.1728C393.394 56.0139 395.818 54.4336 397.872 52.432C399.926 50.4303 401.533 48.1126 402.692 45.4788C403.851 42.7923 404.43 39.9215 404.43 36.8663ZM392.578 37.0244C392.578 38.6046 392.315 40.1059 391.788 41.5281C391.314 42.8977 390.603 44.1092 389.655 45.1627C388.706 46.2163 387.547 47.0591 386.178 47.6912C384.861 48.2706 383.333 48.5603 381.595 48.5603C379.91 48.5603 378.382 48.2443 377.012 47.6122C375.695 46.98 374.537 46.1372 373.536 45.0837C372.535 43.9775 371.771 42.7397 371.244 41.3701C370.718 39.9479 370.454 38.4466 370.454 36.8663V36.7083C370.454 35.1281 370.691 33.6531 371.165 32.2836C371.692 30.8613 372.43 29.6235 373.378 28.57C374.326 27.5164 375.458 26.7 376.775 26.1205C378.145 25.4884 379.699 25.1724 381.437 25.1724C383.07 25.1724 384.571 25.4884 385.941 26.1205C387.31 26.7526 388.496 27.6218 389.496 28.728C390.497 29.7815 391.261 31.0194 391.788 32.4416C392.315 33.8112 392.578 35.2861 392.578 36.8663V37.0244Z" fill="url(#paint8_linear_623_26)"/>
<path d="M418.336 58.9594C416.176 58.9594 414.359 58.222 412.884 56.7471C411.409 55.2721 410.671 53.4285 410.671 51.2161C410.671 48.9511 411.409 47.1338 412.884 45.7642C414.359 44.342 416.176 43.6309 418.336 43.6309C420.495 43.6309 422.313 44.342 423.788 45.7642C425.263 47.1338 426 48.9511 426 51.2161C426 53.4285 425.263 55.2721 423.788 56.7471C422.313 58.222 420.495 58.9594 418.336 58.9594Z" fill="#51290C"/>
<defs>
<linearGradient id="paint0_linear_623_26" x1="203.044" y1="-2.39447" x2="203.319" y2="57.9629" gradientUnits="userSpaceOnUse">
<stop stop-color="#F37417"/>
<stop offset="1" stop-color="#DA4516"/>
</linearGradient>
<linearGradient id="paint1_linear_623_26" x1="203.044" y1="-2.39447" x2="203.319" y2="57.9629" gradientUnits="userSpaceOnUse">
<stop stop-color="#F37417"/>
<stop offset="1" stop-color="#DA4516"/>
</linearGradient>
<linearGradient id="paint2_linear_623_26" x1="203.044" y1="-2.39447" x2="203.319" y2="57.9629" gradientUnits="userSpaceOnUse">
<stop stop-color="#F37417"/>
<stop offset="1" stop-color="#DA4516"/>
</linearGradient>
<linearGradient id="paint3_linear_623_26" x1="203.044" y1="-2.39447" x2="203.319" y2="57.9629" gradientUnits="userSpaceOnUse">
<stop stop-color="#F37417"/>
<stop offset="1" stop-color="#DA4516"/>
</linearGradient>
<linearGradient id="paint4_linear_623_26" x1="203.044" y1="-2.39447" x2="203.319" y2="57.9629" gradientUnits="userSpaceOnUse">
<stop stop-color="#F37417"/>
<stop offset="1" stop-color="#DA4516"/>
</linearGradient>
<linearGradient id="paint5_linear_623_26" x1="203.044" y1="-2.39447" x2="203.319" y2="57.9629" gradientUnits="userSpaceOnUse">
<stop stop-color="#F37417"/>
<stop offset="1" stop-color="#DA4516"/>
</linearGradient>
<linearGradient id="paint6_linear_623_26" x1="203.044" y1="-2.39447" x2="203.319" y2="57.9629" gradientUnits="userSpaceOnUse">
<stop stop-color="#F37417"/>
<stop offset="1" stop-color="#DA4516"/>
</linearGradient>
<linearGradient id="paint7_linear_623_26" x1="203.044" y1="-2.39447" x2="203.319" y2="57.9629" gradientUnits="userSpaceOnUse">
<stop stop-color="#F37417"/>
<stop offset="1" stop-color="#DA4516"/>
</linearGradient>
<linearGradient id="paint8_linear_623_26" x1="203.044" y1="-2.39447" x2="203.319" y2="57.9629" gradientUnits="userSpaceOnUse">
<stop stop-color="#F37417"/>
<stop offset="1" stop-color="#DA4516"/>
</linearGradient>
</defs>
</svg>
