<svg width="1512" height="201" viewBox="0 0 1512 201" fill="none" xmlns="http://www.w3.org/2000/svg">
<g opacity="0.1">
<path d="M1092.14 82.9522C1090.28 82.8504 1088.52 82.0433 1087.23 80.6947C1085.94 79.3461 1085.21 77.5568 1085.19 75.6898C1085.16 73.8228 1085.85 72.0178 1087.12 70.6408C1088.38 69.2638 1090.11 68.4179 1091.98 68.2747C1107.23 67.9485 1121.34 60.3651 1126.23 49.8299C1129.39 43.0456 1128.17 36.0982 1122.59 29.1671C1105.82 8.34132 1071.73 15.5986 1043.91 24.2746C1023.44 30.6349 1003.13 38.5771 983.558 46.2583C937.431 64.2954 889.705 82.9359 835.748 83.0175C833.88 82.9361 832.113 82.1463 830.806 80.8086C829.499 79.4709 828.751 77.6859 828.714 75.8164C828.677 73.9469 829.353 72.1334 830.605 70.7446C831.857 69.3558 833.591 68.4959 835.455 68.3399C849.971 67.7691 863.314 60.1857 867.897 49.9277C870.98 43.013 869.61 35.7231 863.934 28.8899C846.84 8.25978 813.158 15.6149 785.641 24.3236C765.791 30.6186 746.071 38.3325 726.922 45.8017C680.191 64.0671 631.862 82.9685 577.155 83.0501C575.29 82.9482 573.534 82.1412 572.243 80.7926C570.951 79.4439 570.221 77.6547 570.201 75.7877C570.18 73.9206 570.87 72.1156 572.131 70.7386C573.392 69.3616 575.13 68.5157 576.992 68.3725C592.275 68.0464 606.352 60.4466 611.245 49.8951C614.393 43.1271 613.17 36.1798 607.608 29.2487C590.873 8.42287 556.766 15.6801 528.907 24.3562C508.453 30.7001 488.13 38.6423 468.557 46.3236C422.397 64.3607 374.655 83.0012 320.666 83.0827C318.798 83.0013 317.03 82.2115 315.724 80.8738C314.417 79.5362 313.669 77.7511 313.631 75.8816C313.594 74.0122 314.27 72.1986 315.522 70.8098C316.775 69.421 318.509 68.5611 320.372 68.4051C334.922 67.8343 348.297 60.2509 352.88 49.993C355.963 43.0782 354.593 35.8047 348.933 28.9551C331.839 8.32502 298.141 15.6801 270.64 24.3888C250.79 30.6838 231.07 38.3977 211.921 45.8669C165.304 63.9693 116.991 82.8707 62.3662 82.9522C60.5012 82.8528 58.7438 82.0479 57.4505 80.7006C56.1572 79.3534 55.4249 77.5647 55.4021 75.6975C55.3793 73.8302 56.0676 72.0242 57.3276 70.6457C58.5876 69.2673 60.3247 68.4196 62.1868 68.2747C80.6997 67.8343 93.7973 57.397 97.1737 47.3184C99.9139 39.1642 96.717 31.2057 87.9254 24.242C64.5682 5.73198 24.427 20.0834 -2.1598 29.6238L-4.50857 30.4555C-6.32622 31.0226 -8.29297 30.8629 -9.99528 30.01C-11.6976 29.1571 -13.0028 27.6774 -13.6365 25.8822C-14.2702 24.0869 -14.1831 22.1159 -13.3933 20.3836C-12.6036 18.6513 -11.1728 17.2927 -9.40185 16.5934L-7.10201 15.778C22.5349 5.16119 67.341 -10.9026 96.978 12.6794C110.647 23.5407 115.768 37.8595 111.038 51.9663C109.461 56.5713 107.019 60.8333 103.845 64.5237C139.191 58.3918 172.237 45.4592 206.604 32.0048C225.965 24.454 245.913 16.6423 266.253 10.2005C298.108 0.0892774 337.58 -7.99969 360.269 19.4147C369.485 30.537 371.686 43.8773 366.32 55.8151C364.872 59.0427 362.978 62.0511 360.693 64.7521C395.941 58.7832 428.905 45.8996 463.24 32.4941C483.123 24.715 503.691 16.6749 524.65 10.1679C556.946 0.138202 596.875 -7.77137 619.254 19.9529C628.371 31.3688 630.312 44.0893 624.75 56.0271C623.314 59.0805 621.483 61.9317 619.303 64.5074C654.485 58.3266 687.401 45.4592 721.703 32.0537C740.9 24.454 760.832 16.6423 781.14 10.2005C812.978 0.0892774 852.451 -7.99969 875.156 19.3984C884.371 30.5207 886.573 43.861 881.223 55.8151C879.766 59.0463 877.866 62.0595 875.58 64.7684C910.828 58.7832 943.776 45.9159 978.11 32.4941C997.993 24.715 1018.56 16.6749 1039.52 10.1679C1071.8 0.138202 1111.71 -7.77137 1134.04 19.9529C1143.16 31.3688 1145.12 44.1056 1139.56 56.0597C1138.12 59.0985 1136.3 61.9382 1134.14 64.5074C1169.31 58.3429 1202.22 45.4592 1236.51 32.0537C1255.8 24.5029 1275.75 16.6912 1296.06 10.2494C1314.75 4.26423 1364.42 -11.4897 1390.08 19.3984C1399.29 30.5207 1401.49 43.7632 1396.18 55.7661C1394.54 59.4338 1392.34 62.8233 1389.65 65.8121C1428.39 60.873 1466.14 50.0041 1501.58 33.5867C1503.35 32.7736 1505.37 32.6982 1507.2 33.3772C1509.03 34.0561 1510.52 35.4338 1511.33 37.2072C1512.14 38.9805 1512.22 41.0043 1511.54 42.8332C1510.86 44.6621 1509.48 46.1465 1507.71 46.9596C1456.48 70.4763 1402.15 82.9196 1350.6 82.9522C1348.73 82.8736 1346.96 82.086 1345.66 80.7497C1344.35 79.4134 1343.6 77.6288 1343.56 75.7589C1343.52 73.889 1344.19 72.0743 1345.44 70.684C1346.69 69.2936 1348.43 68.4321 1350.29 68.2747C1364.86 67.6876 1378.23 60.1205 1382.8 49.8299C1385.87 42.9314 1384.43 35.6579 1378.82 28.8247C1361.69 8.21086 1328.01 15.5496 1300.53 24.2583C1280.69 30.5534 1260.96 38.2672 1241.81 45.7365C1195.09 64.0019 1146.78 82.9033 1092.07 82.9848L1092.14 82.9522Z" fill="url(#paint0_linear_374_5973)"/>
<path d="M1092.14 200.568C1090.28 200.466 1088.52 199.659 1087.23 198.311C1085.94 196.962 1085.21 195.173 1085.19 193.306C1085.16 191.439 1085.85 189.634 1087.12 188.257C1088.38 186.88 1090.11 186.034 1091.98 185.891C1107.23 185.564 1121.34 177.981 1126.23 167.446C1129.39 160.661 1128.17 153.698 1122.59 146.783C1105.82 125.941 1071.73 133.214 1043.91 141.89C1023.44 148.251 1003.13 156.193 983.558 163.874C937.431 181.911 889.705 200.552 835.748 200.633C833.88 200.552 832.113 199.762 830.806 198.424C829.499 197.087 828.751 195.302 828.714 193.432C828.676 191.563 829.352 189.749 830.605 188.36C831.857 186.972 833.591 186.112 835.455 185.956C849.971 185.385 863.314 177.802 867.897 167.544C870.98 160.629 869.61 153.355 863.934 146.506C846.856 125.876 813.158 133.231 785.641 141.939C765.791 148.234 746.071 155.948 726.922 163.418C680.191 181.699 631.862 200.584 577.155 200.666C575.29 200.564 573.534 199.757 572.243 198.408C570.951 197.06 570.221 195.271 570.2 193.403C570.18 191.536 570.87 189.731 572.131 188.354C573.392 186.977 575.13 186.132 576.992 185.988C592.275 185.662 606.352 178.062 611.245 167.511C614.393 160.743 613.169 153.796 607.607 146.865C590.872 126.039 556.766 133.312 528.907 141.972C508.453 148.316 488.13 156.258 468.557 163.939C422.397 181.977 374.655 200.617 320.666 200.699C318.797 200.617 317.03 199.827 315.723 198.49C314.417 197.152 313.669 195.367 313.631 193.497C313.594 191.628 314.27 189.814 315.522 188.426C316.774 187.037 318.509 186.177 320.372 186.021C334.922 185.45 348.296 177.867 352.88 167.592C355.963 160.694 354.592 153.421 348.933 146.571C331.839 125.941 298.14 133.28 270.64 142.005C250.806 148.3 231.086 156.014 212.019 163.466C165.321 181.536 116.991 200.487 62.3661 200.568C60.501 200.469 58.7437 199.664 57.4504 198.316C56.1571 196.969 55.4248 195.181 55.402 193.313C55.3791 191.446 56.0675 189.64 57.3275 188.262C58.5874 186.883 60.3246 186.035 62.1866 185.891C80.6995 185.45 93.7972 175.029 97.1736 164.934C99.9138 156.78 96.7169 148.822 87.9253 141.858C64.5844 123.348 24.4106 137.732 -2.17624 147.289L-4.45977 148.104C-6.29829 148.759 -8.32185 148.657 -10.0853 147.821C-10.9585 147.407 -11.7415 146.825 -12.3897 146.108C-13.0379 145.391 -13.5385 144.554 -13.863 143.644C-14.1875 142.733 -14.3295 141.768 -14.281 140.803C-14.2324 139.838 -13.9942 138.892 -13.58 138.019C-12.7434 136.256 -11.2405 134.897 -9.40198 134.242L-7.11845 133.426C22.5185 122.826 67.2594 106.746 96.9778 130.295C110.646 141.157 115.768 155.475 111.038 169.598C109.453 174.2 107.013 178.461 103.845 182.156C139.191 176.008 172.253 163.075 206.604 149.539C225.981 142.054 245.913 134.242 266.253 127.816C298.108 117.721 337.564 109.616 360.269 137.031C369.484 148.153 371.686 161.493 366.32 173.431C364.872 176.659 362.978 179.667 360.693 182.368C395.941 176.399 428.905 163.515 463.24 150.094C483.09 142.396 503.658 134.242 524.617 127.718C556.929 117.673 596.859 109.779 619.221 137.504C628.339 148.838 630.28 161.656 624.718 173.578C623.281 176.631 621.45 179.482 619.27 182.058C654.452 175.877 687.368 163.01 721.67 149.604C740.9 142.07 760.832 134.242 781.139 127.816C812.978 117.705 852.451 109.616 875.156 137.014C884.371 148.137 886.573 161.477 881.223 173.447C879.762 176.671 877.863 179.679 875.58 182.384C910.828 176.399 943.776 163.532 978.11 150.11C997.993 142.396 1018.56 134.242 1039.52 127.718C1071.8 117.689 1111.71 109.779 1134.04 137.504C1143.16 148.838 1145.12 161.656 1139.56 173.61C1138.12 176.649 1136.3 179.489 1134.14 182.058C1169.31 175.893 1202.22 163.01 1236.51 149.604C1255.8 142.054 1275.75 134.242 1296.06 127.8C1314.75 121.864 1364.42 106.094 1390.06 136.998C1399.27 148.12 1401.48 161.363 1396.16 173.366C1394.52 177.033 1392.32 180.423 1389.63 183.412C1428.35 178.471 1466.08 167.608 1501.49 151.203C1502.37 150.8 1503.32 150.574 1504.29 150.538C1505.25 150.502 1506.22 150.657 1507.12 150.993C1508.03 151.329 1508.86 151.84 1509.57 152.498C1510.27 153.155 1510.85 153.945 1511.25 154.823C1511.65 155.701 1511.88 156.65 1511.91 157.615C1511.95 158.581 1511.79 159.543 1511.46 160.449C1511.12 161.355 1510.61 162.185 1509.95 162.893C1509.3 163.601 1508.51 164.173 1507.63 164.575C1456.38 188.092 1402.05 200.535 1350.52 200.568C1348.65 200.489 1346.88 199.702 1345.57 198.366C1344.27 197.029 1343.52 195.245 1343.48 193.375C1343.44 191.505 1344.11 189.69 1345.36 188.3C1346.61 186.909 1348.35 186.048 1350.21 185.891C1364.78 185.287 1378.15 177.736 1382.72 167.429C1385.79 160.547 1384.35 153.29 1378.74 146.457C1361.61 125.81 1327.93 133.165 1300.45 141.874C1280.61 148.169 1260.88 155.883 1241.73 163.352C1195.01 181.634 1146.7 200.519 1091.99 200.601L1092.14 200.568Z" fill="url(#paint1_linear_374_5973)"/>
</g>
<defs>
<linearGradient id="paint0_linear_374_5973" x1="748.811" y1="576.624" x2="748.811" y2="-15.7625" gradientUnits="userSpaceOnUse">
<stop offset="0.13" stop-color="#005BA5"/>
<stop offset="0.35" stop-color="#0071BA"/>
<stop offset="0.77" stop-color="#0096DE"/>
<stop offset="1" stop-color="#00A4EC"/>
</linearGradient>
<linearGradient id="paint1_linear_374_5973" x1="748.811" y1="576.623" x2="748.811" y2="-15.7628" gradientUnits="userSpaceOnUse">
<stop offset="0.13" stop-color="#005BA5"/>
<stop offset="0.35" stop-color="#0071BA"/>
<stop offset="0.77" stop-color="#0096DE"/>
<stop offset="1" stop-color="#00A4EC"/>
</linearGradient>
</defs>
</svg>
