<svg width="48" height="42" viewBox="0 0 48 42" fill="none" xmlns="http://www.w3.org/2000/svg">
<path d="M15.48 7.88781C17.612 7.63081 19.125 5.65681 18.873 3.48481C18.621 1.31181 16.684 -0.229188 14.552 0.026812C12.42 0.297812 10.913 2.25781 11.165 4.42981C11.429 6.60381 13.348 8.14481 15.48 7.88781ZM47.422 26.5498C47.216 26.4448 31.375 18.2468 31.375 18.2468L27.353 12.9678L27.104 12.9088C26.555 12.3958 26 12.4428 25 13.0028V13.0148C25 13.4348 24.778 14.0538 25.055 14.5568L28.135 18.4798L28.196 18.5158L25.746 24.2958L19.194 22.6248L18.914 20.2298L24.313 19.5658C24.554 19.5548 24.807 19.4838 25.036 19.3558C25.931 18.8778 26.275 17.7438 25.805 16.8338C25.6371 16.5037 25.3732 16.2321 25.0479 16.0549C24.7227 15.8776 24.3514 15.803 23.983 15.8408L18.484 16.5178L17.991 12.3608C17.728 10.1998 15.79 8.64681 13.67 8.90381C11.545 9.17281 10.02 11.1478 10.272 13.3188L11.418 22.9298C11.4883 23.5169 11.6864 24.0815 11.9982 24.5839C12.31 25.0862 12.7281 25.5142 13.223 25.8378L4.586 26.8888L1.893 33.6848L2.202 33.5808C3.31683 33.0538 4.53389 32.7783 5.767 32.7738C6.99128 32.7784 8.1999 33.0494 9.309 33.5678C10.008 33.8938 10.776 34.0578 11.521 34.0578C12.272 34.0578 13.028 33.8938 13.716 33.5798C14.8304 33.0516 16.0477 32.776 17.281 32.7728C18.5009 32.7763 19.7052 33.0473 20.809 33.5668C21.519 33.8928 22.287 34.0568 23.033 34.0568C23.789 34.0568 24.534 33.8928 25.233 33.5788C26.345 33.0528 27.584 32.7718 28.798 32.7718C30.012 32.7718 31.239 33.0518 32.328 33.5658C32.592 33.6818 32.879 33.7638 33.165 33.8458C37.578 32.6638 45.395 30.3888 47.503 28.4618C48.121 27.9038 48.237 26.9578 47.422 26.5498ZM0 41.9998C0.982006 41.9973 1.95184 41.7823 2.843 41.3698C3.725 40.9488 4.723 40.7048 5.766 40.7048C6.809 40.7048 7.795 40.9488 8.689 41.3698C9.548 41.7668 10.511 41.9998 11.52 41.9998C12.4999 41.9954 13.4674 41.7805 14.357 41.3698C15.2696 40.9332 16.2683 40.706 17.28 40.7048C18.312 40.7048 19.309 40.9488 20.2 41.3698C21.06 41.7658 22.023 41.9998 23.032 41.9998C24.0135 41.9959 24.9828 41.7811 25.874 41.3698C26.7871 40.9334 27.786 40.7062 28.798 40.7048C29.829 40.7048 30.827 40.9488 31.709 41.3698C32.579 41.7668 33.542 41.9998 34.55 41.9998C35.56 41.9998 36.522 41.7668 37.382 41.3698C38.2956 40.936 39.2936 40.7089 40.305 40.7048C41.347 40.7048 42.311 40.9488 43.192 41.3698C44.052 41.7668 45 41.9998 46 41.9998V37.6668C45 37.6668 44.052 37.4358 43.191 37.0378C42.2845 36.6041 41.2919 36.3803 40.287 36.3828C39.256 36.3828 38.267 36.6158 37.373 37.0378C36.4871 37.4501 35.5221 37.6647 34.545 37.6668C33.5644 37.6638 32.5961 37.4492 31.706 37.0378C30.7969 36.6054 29.8027 36.3816 28.796 36.3828C27.752 36.3828 26.756 36.6158 25.872 37.0378C24.9811 37.4488 24.0121 37.6633 23.031 37.6668C22.0529 37.6651 21.0868 37.4504 20.2 37.0378C19.2871 36.6062 18.2898 36.3825 17.28 36.3828C16.269 36.3803 15.2702 36.6041 14.357 37.0378C13.4673 37.4483 12.4998 37.6628 11.52 37.6668C10.5419 37.6652 9.57579 37.4506 8.689 37.0378C7.795 36.6158 6.809 36.3828 5.766 36.3828C4.723 36.3828 3.725 36.6158 2.843 37.0378C1.95193 37.4505 0.981987 37.6651 0 37.6668V41.9998Z" fill="#4F4F4F"/>
</svg>
