<svg width="114" height="115" viewBox="0 0 114 115" fill="none" xmlns="http://www.w3.org/2000/svg">
<rect x="0.0302734" y="0.993164" width="113.229" height="113.229" fill="url(#paint0_linear_114_6)"/>
<path d="M42.4558 35.7727C46.0064 35.3447 48.5261 32.0572 48.1064 28.44C47.6867 24.8211 44.4609 22.2547 40.9103 22.681C37.3597 23.1324 34.8499 26.3965 35.2696 30.0138C35.7093 33.6343 38.9051 36.2007 42.4558 35.7727ZM95.6516 66.8522C95.3085 66.6773 68.9271 53.0244 68.9271 53.0244L62.2289 44.2328L61.8142 44.1346C60.8999 43.2802 59.9757 43.3585 58.3103 44.2911V44.3111C58.3103 45.0106 57.9405 46.0415 58.4019 46.8791L63.5313 53.4125L63.6328 53.4724L59.5526 63.0984L48.641 60.3155L48.1747 56.3269L57.1661 55.2211C57.5675 55.2028 57.9888 55.0845 58.3702 54.8714C59.8607 54.0753 60.4336 52.1867 59.6509 50.6712C59.3713 50.1214 58.9317 49.6692 58.3901 49.374C57.8485 49.0788 57.2302 48.9545 56.6166 49.0175L47.4586 50.145L46.6376 43.222C46.1996 39.623 42.972 37.0367 39.4414 37.4647C35.9025 37.9127 33.3627 41.2018 33.7824 44.8174L35.6909 60.8235C35.8081 61.8012 36.1379 62.7414 36.6572 63.5781C37.1765 64.4147 37.8728 65.1275 38.697 65.6664L24.313 67.4167L19.8281 78.7347L20.3427 78.5615C22.1993 77.6838 24.2262 77.225 26.2798 77.2175C28.3187 77.2253 30.3316 77.6765 32.1786 78.5399C33.3428 79.0828 34.6218 79.3559 35.8625 79.3559C37.1132 79.3559 38.3722 79.0828 39.518 78.5599C41.3739 77.6801 43.4013 77.2212 45.4551 77.2159C47.4868 77.2216 49.4924 77.673 51.3306 78.5382C52.513 79.0811 53.7921 79.3542 55.0344 79.3542C56.2935 79.3542 57.5342 79.0811 58.6983 78.5582C60.5502 77.6822 62.6136 77.2142 64.6354 77.2142C66.6572 77.2142 68.7006 77.6805 70.5142 78.5365C70.9539 78.7297 71.4319 78.8663 71.9082 79.0028C79.2575 77.0344 92.2759 73.2456 95.7865 70.0364C96.8157 69.1071 97.0089 67.5316 95.6516 66.8522ZM16.6755 92.5824C18.311 92.5782 19.9261 92.2202 21.4102 91.5332C22.8791 90.8321 24.5412 90.4258 26.2782 90.4258C28.0152 90.4258 29.6572 90.8321 31.1461 91.5332C32.5767 92.1944 34.1804 92.5824 35.8608 92.5824C37.4927 92.5751 39.1039 92.2173 40.5855 91.5332C42.1054 90.8061 43.7686 90.4277 45.4535 90.4258C47.1721 90.4258 48.8325 90.8321 50.3164 91.5332C51.7486 92.1927 53.3524 92.5824 55.0328 92.5824C56.6674 92.576 58.2816 92.2182 59.7658 91.5332C61.2864 90.8065 62.95 90.4281 64.6354 90.4258C66.3524 90.4258 68.0145 90.8321 69.4834 91.5332C70.9322 92.1944 72.536 92.5824 74.2147 92.5824C75.8968 92.5824 77.4989 92.1944 78.9311 91.5332C80.4526 90.8108 82.1147 90.4326 83.799 90.4258C85.5344 90.4258 87.1398 90.8321 88.607 91.5332C90.0393 92.1944 91.618 92.5824 93.2834 92.5824V85.3663C91.618 85.3663 90.0393 84.9816 88.6054 84.3188C87.0957 83.5965 85.4426 83.2237 83.7691 83.2279C82.052 83.2279 80.405 83.616 78.9161 84.3188C77.4408 85.0054 75.8337 85.3628 74.2064 85.3663C72.5734 85.3612 70.9607 85.0039 69.4784 84.3188C67.9644 83.5986 66.3086 83.2259 64.6321 83.2279C62.8934 83.2279 61.2347 83.616 59.7625 84.3188C58.2787 85.0031 56.6651 85.3604 55.0311 85.3663C53.4021 85.3634 51.7933 85.006 50.3164 84.3188C48.7961 83.5999 47.1352 83.2274 45.4535 83.2279C43.7697 83.2237 42.1064 83.5964 40.5855 84.3188C39.1038 85.0023 37.4926 85.3595 35.8608 85.3663C34.2318 85.3636 32.623 85.0062 31.1461 84.3188C29.6572 83.616 28.0152 83.2279 26.2782 83.2279C24.5412 83.2279 22.8791 83.616 21.4102 84.3188C19.9263 85.006 18.3109 85.3634 16.6755 85.3663V92.5824Z" fill="url(#paint1_linear_114_6)"/>
<defs>
<linearGradient id="paint0_linear_114_6" x1="0.0302734" y1="57.6079" x2="113.26" y2="57.6079" gradientUnits="userSpaceOnUse">
<stop stop-color="#FFEFBA"/>
<stop offset="1" stop-color="white"/>
</linearGradient>
<linearGradient id="paint1_linear_114_6" x1="16.6755" y1="57.6086" x2="96.6141" y2="57.6086" gradientUnits="userSpaceOnUse">
<stop stop-color="#485563"/>
<stop offset="1" stop-color="#29323C"/>
</linearGradient>
</defs>
</svg>
