<svg width="0"
    height="0"
    class="hidden"
    xmlns="http://www.w3.org/2000/svg">
    <symbol id="arrow-right-long"
        viewBox="0 0 25 8">
        <path fill-rule="evenodd"
            clip-rule="evenodd"
            d="M21.1716 0.464468L24.3536 3.64645C24.5488 3.84171 24.5488 4.15829 24.3536 4.35356L21.1716 7.53554C20.9763 7.7308 20.6597 7.7308 20.4645 7.53554C20.2692 7.34027 20.2692 7.02369 20.4645 6.82843L22.7929 4.5L-3.656e-07 4.5L-2.78178e-07 3.5L22.7929 3.5L20.4645 1.17158C20.2692 0.976313 20.2692 0.65973 20.4645 0.464468C20.6597 0.269206 20.9763 0.269206 21.1716 0.464468Z" />
    </symbol>
    <symbol id="icon-email"
        viewBox="0 0 15 15">
        <path d="M7.94721 0.164594C7.66569 0.0238299 7.33431 0.0238302 7.05279 0.164594L0.552786 3.41459C0.214002 3.58399 0 3.93025 0 4.30902V12C0 12.5523 0.447715 13 1 13H14C14.5523 13 15 12.5523 15 12V4.30902C15 3.93025 14.786 3.58399 14.4472 3.41459L7.94721 0.164594ZM13.5689 4.09349L7.5 1.05902L1.43105 4.09349L7.5 7.29136L13.5689 4.09349ZM1 4.88366V12H14V4.88366L7.70977 8.19813C7.57848 8.26731 7.42152 8.26731 7.29023 8.19813L1 4.88366Z"
            fill-rule="evenodd"
            clip-rule="evenodd" />
    </symbol>
    <symbol id="icon-phone"
        viewBox="0 0 24 24">
        <path d="M23 16.92c0.016-0.714-0.236-1.404-0.673-1.943-0.46-0.566-1.129-0.967-1.925-1.080-0.8-0.098-1.695-0.314-2.586-0.646-0.433-0.159-0.893-0.218-1.344-0.174-0.663 0.064-1.307 0.349-1.819 0.855l-0.72 0.72c-1.77-1.117-3.36-2.667-4.583-4.589l0.726-0.726c0.322-0.33 0.563-0.726 0.707-1.156 0.212-0.632 0.214-1.336-0.039-2.011-0.289-0.753-0.518-1.644-0.644-2.595-0.104-0.714-0.456-1.345-0.963-1.804-0.539-0.486-1.256-0.779-2.027-0.771h-2.996c-0.088 0-0.182 0.004-0.273 0.012-0.824 0.075-1.542 0.478-2.033 1.066s-0.758 1.367-0.683 2.199c0.3 3.076 1.365 6.243 3.216 9.102 1.502 2.413 3.648 4.623 6.298 6.306 2.568 1.697 5.684 2.862 9.086 3.231 0.092 0.009 0.191 0.013 0.288 0.013 0.828-0.003 1.578-0.343 2.118-0.887s0.873-1.297 0.87-2.121zM21 16.92v3c0.001 0.28-0.109 0.53-0.29 0.712s-0.429 0.295-0.706 0.296c-3.149-0.336-5.961-1.391-8.263-2.912-2.428-1.543-4.359-3.537-5.702-5.694-1.697-2.62-2.655-5.481-2.924-8.238-0.024-0.268 0.064-0.526 0.229-0.724s0.403-0.33 0.678-0.355l3.088-0.005c0.271-0.003 0.507 0.094 0.687 0.256 0.17 0.154 0.288 0.366 0.323 0.608 0.142 1.072 0.408 2.117 0.757 3.025 0.081 0.216 0.080 0.447 0.010 0.658-0.049 0.145-0.131 0.281-0.242 0.395l-1.262 1.261c-0.324 0.324-0.379 0.814-0.162 1.201 1.584 2.785 3.839 4.957 6.381 6.378 0.397 0.222 0.882 0.144 1.195-0.166l1.27-1.27c0.166-0.164 0.377-0.257 0.598-0.279 0.152-0.015 0.31 0.005 0.459 0.060 1.022 0.381 2.070 0.636 3.034 0.754 0.241 0.034 0.462 0.166 0.615 0.355 0.147 0.181 0.231 0.412 0.226 0.682z"></path>
    </symbol>
    <symbol id="icon-twitter"
        viewBox="0 0 32 32">
        <path d="M31.939 6.092c-1.18 0.519-2.44 0.872-3.767 1.033 1.352-0.815 2.392-2.099 2.884-3.631-1.268 0.74-2.673 1.279-4.169 1.579-1.195-1.279-2.897-2.079-4.788-2.079-3.623 0-6.56 2.937-6.56 6.556 0 0.52 0.060 1.020 0.169 1.499-5.453-0.257-10.287-2.876-13.521-6.835-0.569 0.963-0.888 2.081-0.888 3.3 0 2.28 1.16 4.284 2.917 5.461-1.076-0.035-2.088-0.331-2.971-0.821v0.081c0 3.18 2.257 5.832 5.261 6.436-0.551 0.148-1.132 0.228-1.728 0.228-0.419 0-0.82-0.040-1.221-0.115 0.841 2.604 3.26 4.503 6.139 4.556-2.24 1.759-5.079 2.807-8.136 2.807-0.52 0-1.039-0.031-1.56-0.089 2.919 1.859 6.357 2.945 10.076 2.945 12.072 0 18.665-9.995 18.665-18.648 0-0.279 0-0.56-0.020-0.84 1.281-0.919 2.4-2.080 3.28-3.397z"></path>
    </symbol>
    <symbol id="icon-youtube"
        viewBox="0 0 32 32">
        <path d="M31.327 8.273c-0.386-1.353-1.431-2.398-2.756-2.777l-0.028-0.007c-2.493-0.668-12.528-0.668-12.528-0.668s-10.009-0.013-12.528 0.668c-1.353 0.386-2.398 1.431-2.777 2.756l-0.007 0.028c-0.443 2.281-0.696 4.903-0.696 7.585 0 0.054 0 0.109 0 0.163l-0-0.008c-0 0.037-0 0.082-0 0.126 0 2.682 0.253 5.304 0.737 7.845l-0.041-0.26c0.386 1.353 1.431 2.398 2.756 2.777l0.028 0.007c2.491 0.669 12.528 0.669 12.528 0.669s10.008 0 12.528-0.669c1.353-0.386 2.398-1.431 2.777-2.756l0.007-0.028c0.425-2.233 0.668-4.803 0.668-7.429 0-0.099-0-0.198-0.001-0.297l0 0.015c0.001-0.092 0.001-0.201 0.001-0.31 0-2.626-0.243-5.196-0.708-7.687l0.040 0.258zM12.812 20.801v-9.591l8.352 4.803z"></path>
    </symbol>
    <symbol id="icon-linkedin"
        viewBox="0 0 32 32">
        <path d="M27.263 27.269h-4.739v-7.425c0-1.771-0.036-4.049-2.469-4.049-2.471 0-2.848 1.927-2.848 3.919v7.556h-4.739v-15.269h4.552v2.081h0.061c0.636-1.2 2.183-2.467 4.493-2.467 4.801 0 5.689 3.16 5.689 7.273zM7.116 9.911c-1.525 0-2.751-1.235-2.751-2.753 0-1.517 1.227-2.751 2.751-2.751 1.52 0 2.752 1.233 2.752 2.751 0 1.519-1.233 2.753-2.752 2.753zM9.492 27.269h-4.752v-15.269h4.752zM29.633 0h-27.272c-1.305 0-2.361 1.032-2.361 2.305v27.389c0 1.275 1.056 2.305 2.361 2.305h27.268c1.304 0 2.371-1.031 2.371-2.305v-27.389c0-1.273-1.067-2.305-2.371-2.305z"></path>
    </symbol>
    <symbol id="icon-instagram"
        viewBox="0 0 32 32">
        <path d="M16 0c-4.347 0-4.889 0.020-6.596 0.096-1.704 0.080-2.864 0.348-3.884 0.744-1.052 0.408-1.945 0.956-2.835 1.845s-1.439 1.781-1.845 2.835c-0.396 1.020-0.665 2.18-0.744 3.884-0.080 1.707-0.096 2.249-0.096 6.596s0.020 4.889 0.096 6.596c0.080 1.703 0.348 2.864 0.744 3.884 0.408 1.051 0.956 1.945 1.845 2.835 0.889 0.888 1.781 1.439 2.835 1.845 1.021 0.395 2.181 0.665 3.884 0.744 1.707 0.080 2.249 0.096 6.596 0.096s4.889-0.020 6.596-0.096c1.703-0.080 2.864-0.349 3.884-0.744 1.051-0.408 1.945-0.957 2.835-1.845 0.888-0.889 1.439-1.78 1.845-2.835 0.395-1.020 0.665-2.181 0.744-3.884 0.080-1.707 0.096-2.249 0.096-6.596s-0.020-4.889-0.096-6.596c-0.080-1.703-0.349-2.865-0.744-3.884-0.408-1.052-0.957-1.945-1.845-2.835-0.889-0.889-1.78-1.439-2.835-1.845-1.020-0.396-2.181-0.665-3.884-0.744-1.707-0.080-2.249-0.096-6.596-0.096zM16 2.88c4.271 0 4.78 0.021 6.467 0.095 1.56 0.073 2.407 0.332 2.969 0.553 0.749 0.289 1.28 0.636 1.843 1.195 0.559 0.56 0.905 1.092 1.195 1.841 0.219 0.563 0.48 1.409 0.551 2.969 0.076 1.688 0.093 2.195 0.093 6.467s-0.020 4.78-0.099 6.467c-0.081 1.56-0.341 2.407-0.561 2.969-0.299 0.749-0.639 1.28-1.199 1.843-0.559 0.559-1.099 0.905-1.84 1.195-0.56 0.219-1.42 0.48-2.98 0.551-1.699 0.076-2.199 0.093-6.479 0.093-4.281 0-4.781-0.020-6.479-0.099-1.561-0.081-2.421-0.341-2.981-0.561-0.759-0.299-1.28-0.639-1.839-1.199-0.561-0.559-0.92-1.099-1.2-1.84-0.22-0.56-0.479-1.42-0.56-2.98-0.060-1.68-0.081-2.199-0.081-6.459 0-4.261 0.021-4.781 0.081-6.481 0.081-1.56 0.34-2.419 0.56-2.979 0.28-0.76 0.639-1.28 1.2-1.841 0.559-0.559 1.080-0.919 1.839-1.197 0.56-0.221 1.401-0.481 2.961-0.561 1.7-0.060 2.2-0.080 6.479-0.080zM16 7.784c-4.54 0-8.216 3.68-8.216 8.216 0 4.54 3.68 8.216 8.216 8.216 4.54 0 8.216-3.68 8.216-8.216 0-4.54-3.68-8.216-8.216-8.216zM16 21.333c-2.947 0-5.333-2.387-5.333-5.333s2.387-5.333 5.333-5.333 5.333 2.387 5.333 5.333-2.387 5.333-5.333 5.333zM26.461 7.46c0 1.060-0.861 1.92-1.92 1.92-1.060 0-1.92-0.861-1.92-1.92s0.861-1.919 1.92-1.919c1.057-0.001 1.92 0.86 1.92 1.919z"></path>
    </symbol>
    <symbol id="icon-facebook"
        viewBox="0 0 32 32">
        <path d="M31.997 15.999c0-8.836-7.163-15.999-15.999-15.999s-15.999 7.163-15.999 15.999c0 7.985 5.851 14.604 13.499 15.804v-11.18h-4.062v-4.625h4.062v-3.525c0-4.010 2.389-6.225 6.043-6.225 1.75 0 3.581 0.313 3.581 0.313v3.937h-2.017c-1.987 0-2.607 1.233-2.607 2.498v3.001h4.437l-0.709 4.625h-3.728v11.18c7.649-1.2 13.499-7.819 13.499-15.804z"></path>
    </symbol>
    <symbol id="icon-arrow-left-short"
        viewBox="0 0 15 15">
        <path d="M6.85355 3.14645C7.04882 3.34171 7.04882 3.65829 6.85355 3.85355L3.70711 7H12.5C12.7761 7 13 7.22386 13 7.5C13 7.77614 12.7761 8 12.5 8H3.70711L6.85355 11.1464C7.04882 11.3417 7.04882 11.6583 6.85355 11.8536C6.65829 12.0488 6.34171 12.0488 6.14645 11.8536L2.14645 7.85355C1.95118 7.65829 1.95118 7.34171 2.14645 7.14645L6.14645 3.14645C6.34171 2.95118 6.65829 2.95118 6.85355 3.14645Z"
            fill-rule="evenodd"
            clip-rule="evenodd" />
    </symbol>
    <symbol id="icon-arrow-right-short"
        viewBox="0 0 15 15">
        <path d="M8.14645 3.14645C8.34171 2.95118 8.65829 2.95118 8.85355 3.14645L12.8536 7.14645C13.0488 7.34171 13.0488 7.65829 12.8536 7.85355L8.85355 11.8536C8.65829 12.0488 8.34171 12.0488 8.14645 11.8536C7.95118 11.6583 7.95118 11.3417 8.14645 11.1464L11.2929 8H2.5C2.22386 8 2 7.77614 2 7.5C2 7.22386 2.22386 7 2.5 7H11.2929L8.14645 3.85355C7.95118 3.65829 7.95118 3.34171 8.14645 3.14645Z"
            fill-rule="evenodd"
            clip-rule="evenodd" />
    </symbol>
    <symbol id="icon-arrow-top-short"
        viewBox="0 0 15 15">
        <path d="M7.14645 2.14645C7.34171 1.95118 7.65829 1.95118 7.85355 2.14645L11.8536 6.14645C12.0488 6.34171 12.0488 6.65829 11.8536 6.85355C11.6583 7.04882 11.3417 7.04882 11.1464 6.85355L8 3.70711L8 12.5C8 12.7761 7.77614 13 7.5 13C7.22386 13 7 12.7761 7 12.5L7 3.70711L3.85355 6.85355C3.65829 7.04882 3.34171 7.04882 3.14645 6.85355C2.95118 6.65829 2.95118 6.34171 3.14645 6.14645L7.14645 2.14645Z"
            fill-rule="evenodd"
            clip-rule="evenodd" />
    </symbol>
    <symbol id="icon-chevron-down"
        viewBox="0 0 15 15">
        <path d="M3.13523 6.15803C3.3241 5.95657 3.64052 5.94637 3.84197 6.13523L7.5 9.56464L11.158 6.13523C11.3595 5.94637 11.6759 5.95657 11.8648 6.15803C12.0536 6.35949 12.0434 6.67591 11.842 6.86477L7.84197 10.6148C7.64964 10.7951 7.35036 10.7951 7.15803 10.6148L3.15803 6.86477C2.95657 6.67591 2.94637 6.35949 3.13523 6.15803Z"
            fill-rule="evenodd"
            clip-rule="evenodd" />
    </symbol>
    <symbol id="icon-hamburger-menu"
        viewBox="0 0 33 23">
        <rect x="0.215088"
            y="0.258789"
            width="32"
            height="1.5" />
        <rect x="16.2151"
            y="9.25879"
            width="16"
            height="1.5" />
        <rect x="0.215088"
            y="18.2588"
            width="32"
            height="1.5" />
    </symbol>
    <symbol id="icon-close"
        viewBox="0 0 25 24">
        <path fill-rule="evenodd"
            clip-rule="evenodd"
            d="M0.944768 22.097C0.651874 22.3899 0.651874 22.8647 0.944768 23.1576C1.23766 23.4505 1.71253 23.4505 2.00543 23.1576L12.4351 12.728L22.8652 23.1581C23.1581 23.451 23.6329 23.451 23.9258 23.1581C24.2187 22.8652 24.2187 22.3903 23.9258 22.0974L13.4957 11.6673L23.5722 1.59088C23.8651 1.29798 23.8651 0.82311 23.5722 0.530217C23.2793 0.237324 22.8044 0.237324 22.5115 0.530217L12.4351 10.6067L2.35907 0.53068C2.06618 0.237787 1.59131 0.237787 1.29841 0.53068C1.00552 0.823573 1.00552 1.29845 1.29841 1.59134L11.3744 11.6673L0.944768 22.097Z" />
    </symbol>
    <symbol id="icon-external"
        viewBox="0 0 15 15">
        <path d="M3 2C2.44772 2 2 2.44772 2 3V12C2 12.5523 2.44772 13 3 13H12C12.5523 13 13 12.5523 13 12V8.5C13 8.22386 12.7761 8 12.5 8C12.2239 8 12 8.22386 12 8.5V12H3V3L6.5 3C6.77614 3 7 2.77614 7 2.5C7 2.22386 6.77614 2 6.5 2H3ZM12.8536 2.14645C12.9015 2.19439 12.9377 2.24964 12.9621 2.30861C12.9861 2.36669 12.9996 2.4303 13 2.497L13 2.5V2.50049V5.5C13 5.77614 12.7761 6 12.5 6C12.2239 6 12 5.77614 12 5.5V3.70711L6.85355 8.85355C6.65829 9.04882 6.34171 9.04882 6.14645 8.85355C5.95118 8.65829 5.95118 8.34171 6.14645 8.14645L11.2929 3H9.5C9.22386 3 9 2.77614 9 2.5C9 2.22386 9.22386 2 9.5 2H12.4999H12.5C12.5678 2 12.6324 2.01349 12.6914 2.03794C12.7504 2.06234 12.8056 2.09851 12.8536 2.14645Z"
            fill-rule="evenodd"
            clip-rule="evenodd" />
    </symbol>
    <symbol id="icon-plus"
        viewBox="0 0 15 15">
        <path d="M8 2.75C8 2.47386 7.77614 2.25 7.5 2.25C7.22386 2.25 7 2.47386 7 2.75V7H2.75C2.47386 7 2.25 7.22386 2.25 7.5C2.25 7.77614 2.47386 8 2.75 8H7V12.25C7 12.5261 7.22386 12.75 7.5 12.75C7.77614 12.75 8 12.5261 8 12.25V8H12.25C12.5261 8 12.75 7.77614 12.75 7.5C12.75 7.22386 12.5261 7 12.25 7H8V2.75Z"
            fill-rule="evenodd"
            clip-rule="evenodd" />
    </symbol>
    <symbol id="icon-minus"
        viewBox="0 0 15 15">
        <path d="M2.25 7.5C2.25 7.22386 2.47386 7 2.75 7H12.25C12.5261 7 12.75 7.22386 12.75 7.5C12.75 7.77614 12.5261 8 12.25 8H2.75C2.47386 8 2.25 7.77614 2.25 7.5Z"
            fill-rule="evenodd"
            clip-rule="evenodd" />
    </symbol>
    <symbol id="icon-check"
        viewBox="0 0 15 15">
        <path d="M11.4669 3.72684C11.7558 3.91574 11.8369 4.30308 11.648 4.59198L7.39799 11.092C7.29783 11.2452 7.13556 11.3467 6.95402 11.3699C6.77247 11.3931 6.58989 11.3355 6.45446 11.2124L3.70446 8.71241C3.44905 8.48022 3.43023 8.08494 3.66242 7.82953C3.89461 7.57412 4.28989 7.55529 4.5453 7.78749L6.75292 9.79441L10.6018 3.90792C10.7907 3.61902 11.178 3.53795 11.4669 3.72684Z"
            fill-rule="evenodd"
            clip-rule="evenodd" />
    </symbol>
    <symbol id="icon-whatsapp"
        viewBox="0 0 16 16">
        <path d="M8.03202 4.76556e-05C3.66403 4.76556e-05 0.104039 3.56004 0.104039 7.92802C0.104039 9.32802 0.472038 10.688 1.16004 11.888L0.0400391 16L4.24003 14.896C5.40002 15.528 6.70402 15.864 8.03202 15.864C12.4 15.864 15.96 12.304 15.96 7.93602C15.96 5.81603 15.136 3.82404 13.64 2.32804C12.9066 1.58718 12.0329 0.999779 11.0701 0.600087C10.1073 0.200395 9.07451 -0.00358408 8.03202 4.76556e-05ZM8.04002 1.33604C9.80001 1.33604 11.448 2.02404 12.696 3.27204C13.3085 3.88432 13.7941 4.61149 14.1249 5.41184C14.4558 6.21219 14.6254 7.06998 14.624 7.93602C14.624 11.568 11.664 14.52 8.03202 14.52C6.84802 14.52 5.68802 14.208 4.68003 13.6L4.44003 13.464L1.94403 14.12L2.60803 11.688L2.44803 11.432C1.78719 10.383 1.43764 9.16788 1.44003 7.92802C1.44803 4.29603 4.40003 1.33604 8.04002 1.33604ZM5.22402 4.26403C5.09602 4.26403 4.88002 4.31203 4.69602 4.51203C4.52003 4.71203 4.00003 5.20003 4.00003 6.16803C4.00003 7.14403 4.71203 8.08002 4.80002 8.21602C4.91202 8.35202 6.20802 10.352 8.20002 11.2C8.67201 11.416 9.04001 11.536 9.32801 11.624C9.80001 11.776 10.232 11.752 10.576 11.704C10.96 11.648 11.744 11.224 11.912 10.76C12.08 10.296 12.08 9.90402 12.032 9.81602C11.976 9.73602 11.848 9.68802 11.648 9.60002C11.448 9.48802 10.472 9.00802 10.296 8.94402C10.112 8.88002 10 8.84802 9.84801 9.04002C9.72001 9.24002 9.33601 9.68802 9.22401 9.81602C9.10401 9.95202 8.99201 9.96802 8.80001 9.87202C8.59201 9.76802 7.95202 9.56002 7.20002 8.88802C6.60802 8.36002 6.21602 7.71202 6.09602 7.51203C6.00002 7.32003 6.08802 7.20003 6.18402 7.11203C6.27202 7.02403 6.40002 6.88003 6.48002 6.76003C6.58402 6.64803 6.61602 6.56003 6.68002 6.43203C6.74402 6.29603 6.71202 6.18403 6.66402 6.08803C6.61602 6.00003 6.21602 5.00803 6.04802 4.61603C5.88802 4.23204 5.72802 4.28004 5.60002 4.27204C5.48802 4.27204 5.36002 4.26403 5.22402 4.26403Z" />
    </symbol>
    <symbol id="icon-asterisk"
        viewBox="0 0 26 28">
        <path d="M23.156 16.406c0.953 0.547 1.281 1.781 0.734 2.734l-1 1.719c-0.547 0.953-1.781 1.281-2.734 0.734l-4.156-2.391v4.797c0 1.094-0.906 2-2 2h-2c-1.094 0-2-0.906-2-2v-4.797l-4.156 2.391c-0.953 0.547-2.187 0.219-2.734-0.734l-1-1.719c-0.547-0.953-0.219-2.188 0.734-2.734l4.156-2.406-4.156-2.406c-0.953-0.547-1.281-1.781-0.734-2.734l1-1.719c0.547-0.953 1.781-1.281 2.734-0.734l4.156 2.391v-4.797c0-1.094 0.906-2 2-2h2c1.094 0 2 0.906 2 2v4.797l4.156-2.391c0.953-0.547 2.188-0.219 2.734 0.734l1 1.719c0.547 0.953 0.219 2.188-0.734 2.734l-4.156 2.406z"></path>
    </symbol>
    <symbol id="icon-anchor"
        viewBox="0 0 20 20">
        <path d="M4.34 15.66c1.216 1.219 2.825 2.046 4.62 2.276l0.040 0.004v-7.94h-4v-2h4v-2.17c-1.175-0.424-2-1.53-2-2.828 0-1.657 1.343-3 3-3s3 1.343 3 3c0 1.298-0.825 2.404-1.979 2.822l-0.021 0.007v2.17h4v2h-4v7.94c1.835-0.234 3.444-1.061 4.66-2.28l0-0-1.42-1.42h5.66l-2.83 2.83c-1.81 1.809-4.309 2.928-7.070 2.928s-5.26-1.119-7.070-2.928l-2.83-2.83h5.66l-1.42 1.42zM10 4c0.552 0 1-0.448 1-1s-0.448-1-1-1v0c-0.552 0-1 0.448-1 1s0.448 1 1 1v0z"></path>
    </symbol>
</svg>